<mxfile host="app.diagrams.net" modified="2022-10-16T14:05:04.655Z" agent="5.0 (Windows NT 10.0; Win64; x64) AppleWebKit/537.36 (KHTML, like Gecko) Chrome/106.0.0.0 Safari/537.36" etag="jr0M6y3t96YzbASqHRwk" version="20.4.1" type="github">
  <diagram id="C5RBs43oDa-KdzZeNtuy" name="Page-1">
    <mxGraphModel dx="1062" dy="571" grid="1" gridSize="10" guides="1" tooltips="1" connect="1" arrows="1" fold="1" page="1" pageScale="1" pageWidth="827" pageHeight="1169" math="0" shadow="0">
      <root>
        <mxCell id="WIyWlLk6GJQsqaUBKTNV-0" />
        <mxCell id="WIyWlLk6GJQsqaUBKTNV-1" parent="WIyWlLk6GJQsqaUBKTNV-0" />
        <mxCell id="Z2KZRCMlblatHbqPWgvD-1" value="" style="rounded=0;whiteSpace=wrap;html=1;spacingTop=0;" vertex="1" parent="WIyWlLk6GJQsqaUBKTNV-1">
          <mxGeometry x="330" y="40" width="120" height="60" as="geometry" />
        </mxCell>
        <mxCell id="Z2KZRCMlblatHbqPWgvD-2" value="UNIVERSİTE" style="text;html=1;resizable=0;autosize=1;align=center;verticalAlign=middle;points=[];fillColor=none;strokeColor=none;rounded=0;fontStyle=1;fontSize=16;" vertex="1" parent="WIyWlLk6GJQsqaUBKTNV-1">
          <mxGeometry x="330" y="55" width="120" height="30" as="geometry" />
        </mxCell>
        <mxCell id="Z2KZRCMlblatHbqPWgvD-3" value="" style="rounded=0;whiteSpace=wrap;html=1;fontSize=16;" vertex="1" parent="WIyWlLk6GJQsqaUBKTNV-1">
          <mxGeometry x="130" y="230" width="120" height="60" as="geometry" />
        </mxCell>
        <mxCell id="Z2KZRCMlblatHbqPWgvD-4" value="&lt;b&gt;&lt;font style=&quot;font-size: 20px;&quot;&gt;SINIF&lt;/font&gt;&lt;/b&gt;" style="text;html=1;resizable=0;autosize=1;align=center;verticalAlign=middle;points=[];fillColor=none;strokeColor=none;rounded=0;fontSize=16;" vertex="1" parent="WIyWlLk6GJQsqaUBKTNV-1">
          <mxGeometry x="155" y="240" width="70" height="40" as="geometry" />
        </mxCell>
        <mxCell id="Z2KZRCMlblatHbqPWgvD-6" value="" style="rounded=0;whiteSpace=wrap;html=1;fontSize=20;" vertex="1" parent="WIyWlLk6GJQsqaUBKTNV-1">
          <mxGeometry x="330" y="230" width="120" height="60" as="geometry" />
        </mxCell>
        <mxCell id="Z2KZRCMlblatHbqPWgvD-7" value="&lt;b style=&quot;font-size: 17px;&quot;&gt;&lt;font style=&quot;font-size: 17px;&quot;&gt;DEPARTMAN&lt;/font&gt;&lt;/b&gt;" style="text;html=1;resizable=0;autosize=1;align=center;verticalAlign=middle;points=[];fillColor=none;strokeColor=none;rounded=0;fontSize=17;" vertex="1" parent="WIyWlLk6GJQsqaUBKTNV-1">
          <mxGeometry x="320" y="245" width="130" height="30" as="geometry" />
        </mxCell>
        <mxCell id="Z2KZRCMlblatHbqPWgvD-8" value="" style="rounded=0;whiteSpace=wrap;html=1;fontSize=17;" vertex="1" parent="WIyWlLk6GJQsqaUBKTNV-1">
          <mxGeometry x="560" y="230" width="120" height="60" as="geometry" />
        </mxCell>
        <mxCell id="Z2KZRCMlblatHbqPWgvD-9" value="&lt;b&gt;&lt;font style=&quot;font-size: 20px;&quot;&gt;ÇALIŞAN&lt;/font&gt;&lt;/b&gt;" style="text;html=1;resizable=0;autosize=1;align=center;verticalAlign=middle;points=[];fillColor=none;strokeColor=none;rounded=0;fontSize=17;" vertex="1" parent="WIyWlLk6GJQsqaUBKTNV-1">
          <mxGeometry x="565" y="240" width="110" height="40" as="geometry" />
        </mxCell>
        <mxCell id="Z2KZRCMlblatHbqPWgvD-10" value="" style="rounded=0;whiteSpace=wrap;html=1;fontSize=20;" vertex="1" parent="WIyWlLk6GJQsqaUBKTNV-1">
          <mxGeometry x="460" y="340" width="120" height="60" as="geometry" />
        </mxCell>
        <mxCell id="Z2KZRCMlblatHbqPWgvD-11" value="&lt;b&gt;OFİS&lt;/b&gt;" style="text;html=1;resizable=0;autosize=1;align=center;verticalAlign=middle;points=[];fillColor=none;strokeColor=none;rounded=0;fontSize=20;" vertex="1" parent="WIyWlLk6GJQsqaUBKTNV-1">
          <mxGeometry x="485" y="350" width="70" height="40" as="geometry" />
        </mxCell>
        <mxCell id="Z2KZRCMlblatHbqPWgvD-17" value="" style="endArrow=diamondThin;endFill=0;endSize=24;html=1;rounded=0;fontSize=20;exitX=0.5;exitY=0;exitDx=0;exitDy=0;" edge="1" parent="WIyWlLk6GJQsqaUBKTNV-1" source="Z2KZRCMlblatHbqPWgvD-6">
          <mxGeometry width="160" relative="1" as="geometry">
            <mxPoint x="270" y="290" as="sourcePoint" />
            <mxPoint x="390" y="100" as="targetPoint" />
          </mxGeometry>
        </mxCell>
        <mxCell id="Z2KZRCMlblatHbqPWgvD-21" value="" style="endArrow=none;html=1;rounded=0;fontSize=20;exitX=0.5;exitY=0;exitDx=0;exitDy=0;" edge="1" parent="WIyWlLk6GJQsqaUBKTNV-1" source="Z2KZRCMlblatHbqPWgvD-3">
          <mxGeometry width="50" height="50" relative="1" as="geometry">
            <mxPoint x="330" y="320" as="sourcePoint" />
            <mxPoint x="389" y="170" as="targetPoint" />
          </mxGeometry>
        </mxCell>
        <mxCell id="Z2KZRCMlblatHbqPWgvD-22" value="" style="endArrow=none;html=1;rounded=0;fontSize=20;exitX=0.5;exitY=0;exitDx=0;exitDy=0;" edge="1" parent="WIyWlLk6GJQsqaUBKTNV-1" source="Z2KZRCMlblatHbqPWgvD-8">
          <mxGeometry width="50" height="50" relative="1" as="geometry">
            <mxPoint x="330" y="320" as="sourcePoint" />
            <mxPoint x="390" y="170" as="targetPoint" />
          </mxGeometry>
        </mxCell>
        <mxCell id="Z2KZRCMlblatHbqPWgvD-23" value="1" style="text;html=1;strokeColor=none;fillColor=none;align=center;verticalAlign=middle;whiteSpace=wrap;rounded=0;fontSize=20;" vertex="1" parent="WIyWlLk6GJQsqaUBKTNV-1">
          <mxGeometry x="360" y="100" width="20" height="20" as="geometry" />
        </mxCell>
        <mxCell id="Z2KZRCMlblatHbqPWgvD-24" value="n" style="text;html=1;resizable=0;autosize=1;align=center;verticalAlign=middle;points=[];fillColor=none;strokeColor=none;rounded=0;fontSize=20;" vertex="1" parent="WIyWlLk6GJQsqaUBKTNV-1">
          <mxGeometry x="175" y="190" width="30" height="40" as="geometry" />
        </mxCell>
        <mxCell id="Z2KZRCMlblatHbqPWgvD-25" value="n" style="text;html=1;resizable=0;autosize=1;align=center;verticalAlign=middle;points=[];fillColor=none;strokeColor=none;rounded=0;fontSize=20;" vertex="1" parent="WIyWlLk6GJQsqaUBKTNV-1">
          <mxGeometry x="625" y="200" width="30" height="40" as="geometry" />
        </mxCell>
        <mxCell id="Z2KZRCMlblatHbqPWgvD-26" value="n" style="text;html=1;resizable=0;autosize=1;align=center;verticalAlign=middle;points=[];fillColor=none;strokeColor=none;rounded=0;fontSize=20;" vertex="1" parent="WIyWlLk6GJQsqaUBKTNV-1">
          <mxGeometry x="399" y="200" width="30" height="40" as="geometry" />
        </mxCell>
        <mxCell id="Z2KZRCMlblatHbqPWgvD-28" value="" style="endArrow=none;html=1;rounded=0;fontSize=20;entryX=0;entryY=0.5;entryDx=0;entryDy=0;exitX=1.006;exitY=0.573;exitDx=0;exitDy=0;exitPerimeter=0;startArrow=none;" edge="1" parent="WIyWlLk6GJQsqaUBKTNV-1" source="Z2KZRCMlblatHbqPWgvD-30" target="Z2KZRCMlblatHbqPWgvD-8">
          <mxGeometry width="50" height="50" relative="1" as="geometry">
            <mxPoint x="330" y="320" as="sourcePoint" />
            <mxPoint x="380" y="270" as="targetPoint" />
          </mxGeometry>
        </mxCell>
        <mxCell id="Z2KZRCMlblatHbqPWgvD-30" value="ÇALIŞIR" style="text;html=1;resizable=0;autosize=1;align=center;verticalAlign=middle;points=[];fillColor=none;strokeColor=none;rounded=0;fontSize=17;" vertex="1" parent="WIyWlLk6GJQsqaUBKTNV-1">
          <mxGeometry x="460" y="250" width="90" height="30" as="geometry" />
        </mxCell>
        <mxCell id="Z2KZRCMlblatHbqPWgvD-31" value="" style="endArrow=none;html=1;rounded=0;fontSize=20;entryX=0;entryY=0.5;entryDx=0;entryDy=0;exitX=1.006;exitY=0.573;exitDx=0;exitDy=0;exitPerimeter=0;" edge="1" parent="WIyWlLk6GJQsqaUBKTNV-1" source="Z2KZRCMlblatHbqPWgvD-7" target="Z2KZRCMlblatHbqPWgvD-30">
          <mxGeometry width="50" height="50" relative="1" as="geometry">
            <mxPoint x="450.78" y="262.19000000000005" as="sourcePoint" />
            <mxPoint x="560" y="260" as="targetPoint" />
          </mxGeometry>
        </mxCell>
        <mxCell id="Z2KZRCMlblatHbqPWgvD-32" value="1" style="text;html=1;resizable=0;autosize=1;align=center;verticalAlign=middle;points=[];fillColor=none;strokeColor=none;rounded=0;fontSize=17;" vertex="1" parent="WIyWlLk6GJQsqaUBKTNV-1">
          <mxGeometry x="450" y="230" width="30" height="30" as="geometry" />
        </mxCell>
        <mxCell id="Z2KZRCMlblatHbqPWgvD-33" value="n" style="text;html=1;resizable=0;autosize=1;align=center;verticalAlign=middle;points=[];fillColor=none;strokeColor=none;rounded=0;fontSize=17;" vertex="1" parent="WIyWlLk6GJQsqaUBKTNV-1">
          <mxGeometry x="535" y="230" width="30" height="30" as="geometry" />
        </mxCell>
        <mxCell id="Z2KZRCMlblatHbqPWgvD-34" value="" style="endArrow=diamondThin;endFill=0;endSize=24;html=1;rounded=0;fontSize=17;entryX=0.5;entryY=1;entryDx=0;entryDy=0;exitX=0;exitY=0.5;exitDx=0;exitDy=0;" edge="1" parent="WIyWlLk6GJQsqaUBKTNV-1" source="Z2KZRCMlblatHbqPWgvD-10" target="Z2KZRCMlblatHbqPWgvD-6">
          <mxGeometry width="160" relative="1" as="geometry">
            <mxPoint x="390" y="390" as="sourcePoint" />
            <mxPoint x="430" y="290" as="targetPoint" />
            <Array as="points">
              <mxPoint x="390" y="370" />
            </Array>
          </mxGeometry>
        </mxCell>
        <mxCell id="Z2KZRCMlblatHbqPWgvD-35" value="" style="endArrow=diamondThin;endFill=0;endSize=24;html=1;rounded=0;fontSize=17;entryX=0.59;entryY=1.057;entryDx=0;entryDy=0;entryPerimeter=0;exitX=1;exitY=0.5;exitDx=0;exitDy=0;" edge="1" parent="WIyWlLk6GJQsqaUBKTNV-1" source="Z2KZRCMlblatHbqPWgvD-10" target="Z2KZRCMlblatHbqPWgvD-8">
          <mxGeometry width="160" relative="1" as="geometry">
            <mxPoint x="270" y="290" as="sourcePoint" />
            <mxPoint x="430" y="290" as="targetPoint" />
            <Array as="points">
              <mxPoint x="631" y="370" />
            </Array>
          </mxGeometry>
        </mxCell>
        <mxCell id="Z2KZRCMlblatHbqPWgvD-36" value="1" style="text;html=1;resizable=0;autosize=1;align=center;verticalAlign=middle;points=[];fillColor=none;strokeColor=none;rounded=0;fontSize=17;" vertex="1" parent="WIyWlLk6GJQsqaUBKTNV-1">
          <mxGeometry x="399" y="290" width="30" height="30" as="geometry" />
        </mxCell>
        <mxCell id="Z2KZRCMlblatHbqPWgvD-37" value="n" style="text;html=1;resizable=0;autosize=1;align=center;verticalAlign=middle;points=[];fillColor=none;strokeColor=none;rounded=0;fontSize=17;" vertex="1" parent="WIyWlLk6GJQsqaUBKTNV-1">
          <mxGeometry x="430" y="340" width="30" height="30" as="geometry" />
        </mxCell>
        <mxCell id="Z2KZRCMlblatHbqPWgvD-38" value="1" style="text;html=1;resizable=0;autosize=1;align=center;verticalAlign=middle;points=[];fillColor=none;strokeColor=none;rounded=0;fontSize=17;" vertex="1" parent="WIyWlLk6GJQsqaUBKTNV-1">
          <mxGeometry x="640" y="290" width="30" height="30" as="geometry" />
        </mxCell>
        <mxCell id="Z2KZRCMlblatHbqPWgvD-39" value="1" style="text;html=1;resizable=0;autosize=1;align=center;verticalAlign=middle;points=[];fillColor=none;strokeColor=none;rounded=0;fontSize=17;" vertex="1" parent="WIyWlLk6GJQsqaUBKTNV-1">
          <mxGeometry x="580" y="340" width="30" height="30" as="geometry" />
        </mxCell>
        <mxCell id="Z2KZRCMlblatHbqPWgvD-40" value="Extends" style="endArrow=block;endSize=16;endFill=0;html=1;rounded=0;fontSize=17;exitX=1;exitY=0.5;exitDx=0;exitDy=0;" edge="1" parent="WIyWlLk6GJQsqaUBKTNV-1" source="Z2KZRCMlblatHbqPWgvD-8" target="Z2KZRCMlblatHbqPWgvD-43">
          <mxGeometry width="160" relative="1" as="geometry">
            <mxPoint x="270" y="290" as="sourcePoint" />
            <mxPoint x="820" y="230" as="targetPoint" />
            <Array as="points">
              <mxPoint x="710" y="230" />
            </Array>
          </mxGeometry>
        </mxCell>
        <mxCell id="Z2KZRCMlblatHbqPWgvD-41" value="Extends" style="endArrow=block;endSize=16;endFill=0;html=1;rounded=0;fontSize=17;exitX=1;exitY=0.5;exitDx=0;exitDy=0;" edge="1" parent="WIyWlLk6GJQsqaUBKTNV-1" source="Z2KZRCMlblatHbqPWgvD-8" target="Z2KZRCMlblatHbqPWgvD-42">
          <mxGeometry width="160" relative="1" as="geometry">
            <mxPoint x="620" y="290" as="sourcePoint" />
            <mxPoint x="830" y="290" as="targetPoint" />
            <Array as="points">
              <mxPoint x="710" y="290" />
            </Array>
          </mxGeometry>
        </mxCell>
        <mxCell id="Z2KZRCMlblatHbqPWgvD-42" value="Memur" style="html=1;fontSize=17;" vertex="1" parent="WIyWlLk6GJQsqaUBKTNV-1">
          <mxGeometry x="820" y="260" width="110" height="50" as="geometry" />
        </mxCell>
        <mxCell id="Z2KZRCMlblatHbqPWgvD-43" value="Prof" style="html=1;fontSize=17;" vertex="1" parent="WIyWlLk6GJQsqaUBKTNV-1">
          <mxGeometry x="820" y="200" width="110" height="50" as="geometry" />
        </mxCell>
      </root>
    </mxGraphModel>
  </diagram>
</mxfile>
